<svg width="666" height="666" viewBox="0 0 666 666" fill="none" xmlns="http://www.w3.org/2000/svg">
<path fill-rule="evenodd" clip-rule="evenodd" d="M147.576 100.958V114.431C162.391 100.707 171.634 95.4945 189.758 91C163.632 133.729 148.211 149.039 121.221 150.104C119.718 150.163 118.597 148.76 118.95 147.299C123.605 128.021 129.829 117.344 147.576 100.958ZM130 164.222C122.684 166.733 118.08 167.621 110.885 166.541C108.978 166.255 107.508 164.728 107.226 162.821C105.496 151.13 106.284 143.266 109.495 129.661C91.4021 151.532 85.2563 167.022 84.905 200.294C84.8884 201.871 86.4201 202.999 87.9119 202.487C105.318 196.518 114.927 187.419 130 164.222ZM81.6135 220.849C89.9521 220.292 95.6205 218.952 104.808 215.771C96.0749 235.091 88.8644 243.514 72.7302 252.25C71.6608 252.83 70.322 252.474 69.705 251.426C54.6231 225.812 58.8833 191.189 73.7576 167.737C73.0857 191.408 73.656 203.47 76.9465 217.393C77.4517 219.531 79.4215 220.995 81.6135 220.849ZM91.9192 257.947C83.0197 262.899 77.6758 265.206 69.7347 267.609C67.9203 268.158 65.9505 267.521 64.7987 266.016C52.5399 249.993 47.8042 237.779 43.2929 213.428C35.8039 253.456 38.505 273.061 63.5888 299.837C64.3742 300.675 65.6682 300.818 66.6038 300.151C83.9781 287.767 88.2301 277.184 91.9192 257.947ZM70.381 322.852C78.0335 318.7 82.1883 314.587 88.404 306.566C87.7898 330.305 84.287 341.544 70.2104 354.721C69.5259 355.362 68.5061 355.516 67.6579 355.116C34.1531 339.322 21.6162 316.386 21.6162 264.39C23.6466 267.821 25.5393 271.064 27.3355 274.142L27.336 274.142L27.3366 274.143C40.0391 295.909 47.9204 309.413 65.6283 322.502C67.0135 323.526 68.8668 323.673 70.381 322.852ZM94.8485 346.985C91.2007 360.486 87.3105 367.26 78.3487 375.916C77.0031 377.216 74.9898 377.542 73.2965 376.746C47.4264 364.586 31.4224 348.28 14 317.11C14 360.054 28.5197 391.425 79.9139 406.888C80.7911 407.152 81.7645 406.873 82.3537 406.171C96.73 389.06 98.463 375.202 94.8485 346.985ZM90.3005 425.074C62.9362 420.86 48.2588 411.387 23.9596 389.161C36.1225 429.12 63.1729 455.338 108.507 454.232C109.453 454.209 110.3 453.601 110.622 452.712C118.124 431.997 117.601 418.863 110.081 394.433C105.4 406.56 101.752 413.236 94.7294 423.183C93.7293 424.6 92.0146 425.338 90.3005 425.074ZM134.101 437.195C132.645 449.944 130.527 457.294 124.104 469.114C123.4 470.411 122.105 471.289 120.64 471.469C101.051 473.87 88.8702 472.524 67.3131 467.656C90.5741 489.766 106.951 496.647 142.704 495.269C143.824 495.226 144.767 494.382 144.922 493.272C148.195 469.75 145.825 457.139 134.101 437.195ZM158.412 502.273C159.849 490.617 159.941 483.42 159.293 471.17C176.589 489.566 182.014 501.514 182.144 524.732C182.15 525.92 181.236 526.919 180.053 527.042C143.619 530.825 127.213 526.731 105.98 509.246C131.868 510.774 145.475 510.903 156.092 505.65C157.394 505.006 158.235 503.715 158.412 502.273ZM196.202 513.932C198.233 527.275 196.044 532.349 187.414 537.949L202.646 543.221C248.271 541.64 272.715 543.789 292.869 556.108C284.817 562.689 272.913 563.546 248.929 562.552L261.818 574.853C286.007 575.652 297.512 573.475 311.616 561.38C299.899 544.392 282.52 538.933 260.061 533.848L259.218 533.658L259.218 533.658C228.725 526.755 213.176 523.235 196.202 513.932ZM518.424 100.958V114.431C503.609 100.707 494.366 95.4945 476.242 91C502.368 133.729 517.789 149.039 544.779 150.104C546.282 150.163 547.403 148.76 547.05 147.299C542.394 128.021 536.171 117.344 518.424 100.958ZM536 164.222C543.315 166.733 547.92 167.621 555.115 166.541C557.021 166.255 558.491 164.728 558.774 162.821C560.503 151.13 559.716 143.266 556.505 129.661C574.598 151.532 580.743 167.022 581.095 200.294C581.111 201.871 579.58 202.999 578.088 202.487C560.682 196.518 551.073 187.419 536 164.222ZM584.386 220.849C576.048 220.292 570.379 218.952 561.192 215.771C569.925 235.091 577.135 243.514 593.27 252.25C594.339 252.83 595.678 252.474 596.295 251.426C611.377 225.812 607.116 191.189 592.242 167.737C592.914 191.408 592.344 203.47 589.053 217.393C588.548 219.531 586.578 220.995 584.386 220.849ZM574.081 257.947C582.98 262.899 588.324 265.206 596.265 267.609C598.079 268.158 600.049 267.521 601.201 266.016C613.46 249.993 618.196 237.779 622.707 213.428C630.196 253.456 627.495 273.061 602.411 299.837C601.626 300.675 600.332 300.818 599.396 300.151C582.022 287.767 577.77 277.184 574.081 257.947ZM595.619 322.852C587.966 318.7 583.811 314.587 577.596 306.566C578.21 330.305 581.713 341.544 595.789 354.721C596.474 355.362 597.494 355.516 598.342 355.116C631.847 339.322 644.384 316.386 644.384 264.39C642.353 267.821 640.46 271.065 638.663 274.143C625.961 295.909 618.079 309.413 600.371 322.502C598.986 323.526 597.133 323.673 595.619 322.852ZM571.151 346.985C574.799 360.486 578.689 367.26 587.651 375.916C588.997 377.216 591.01 377.542 592.703 376.746C618.573 364.586 634.577 348.28 652 317.11C652 360.054 637.48 391.425 586.086 406.888C585.209 407.152 584.235 406.873 583.646 406.171C569.27 389.06 567.537 375.202 571.151 346.985ZM575.699 425.074C603.064 420.86 617.741 411.387 642.04 389.161C629.877 429.12 602.827 455.338 557.492 454.232C556.547 454.209 555.7 453.601 555.378 452.712C547.876 431.997 548.399 418.863 555.919 394.433C560.599 406.56 564.247 413.236 571.27 423.183C572.271 424.6 573.985 425.338 575.699 425.074ZM531.899 437.195C533.354 449.944 535.473 457.294 541.895 469.114C542.6 470.411 543.895 471.289 545.359 471.469C564.948 473.87 577.13 472.524 598.687 467.656C575.426 489.766 559.049 496.647 523.296 495.269C522.176 495.226 521.233 494.382 521.078 493.272C517.804 469.75 520.175 457.139 531.899 437.195ZM507.587 502.273C506.151 490.617 506.059 483.42 506.707 471.17C489.411 489.566 483.985 501.514 483.856 524.732C483.849 525.92 484.764 526.919 485.947 527.042C522.381 530.825 538.787 526.731 560.02 509.246C534.132 510.774 520.524 510.903 509.908 505.65C508.606 505.006 507.765 503.715 507.587 502.273ZM469.798 513.932C467.767 527.275 469.956 532.349 478.586 537.949L463.353 543.221C417.729 541.64 393.285 543.789 373.131 556.108C381.183 562.689 393.087 563.546 417.071 562.552L404.182 574.853C379.993 575.652 368.488 573.475 354.384 561.38C366.101 544.392 383.48 538.933 405.939 533.848L406.781 533.658L406.782 533.658C437.275 526.755 452.823 523.235 469.798 513.932Z" fill="url(#paint0_linear_204_58)"/>
<ellipse cx="332.667" cy="311.638" rx="197.434" ry="197.407" fill="#5B92E5"/>
<path fill-rule="evenodd" clip-rule="evenodd" d="M332.667 524.275C450.119 524.275 545.333 429.074 545.333 311.638C545.333 194.201 450.119 99 332.667 99C215.214 99 120 194.201 120 311.638C120 429.074 215.214 524.275 332.667 524.275ZM332.667 513.846C444.359 513.846 534.903 423.314 534.903 311.638C534.903 199.961 444.359 109.429 332.667 109.429C220.975 109.429 130.43 199.961 130.43 311.638C130.43 423.314 220.975 513.846 332.667 513.846Z" fill="white"/>
<path fill-rule="evenodd" clip-rule="evenodd" d="M400.667 136.691C400.667 140.573 397.519 143.72 393.636 143.72C389.754 143.72 386.606 140.573 386.606 136.691C386.606 132.809 389.754 129.661 393.636 129.661C397.519 129.661 400.667 132.809 400.667 136.691ZM260.647 150.749C264.853 150.749 268.263 147.34 268.263 143.134C268.263 138.929 264.853 135.519 260.647 135.519C256.44 135.519 253.03 138.929 253.03 143.134C253.03 147.34 256.44 150.749 260.647 150.749ZM364.344 143.134C364.344 146.693 361.458 149.578 357.899 149.578C354.34 149.578 351.455 146.693 351.455 143.134C351.455 139.576 354.34 136.691 357.899 136.691C361.458 136.691 364.344 139.576 364.344 143.134ZM454.566 173.009C454.566 176.244 451.943 178.867 448.707 178.867C445.472 178.867 442.849 176.244 442.849 173.009C442.849 169.774 445.472 167.151 448.707 167.151C451.943 167.151 454.566 169.774 454.566 173.009ZM318.647 187.068C321.882 187.068 324.505 184.445 324.505 181.21C324.505 177.975 321.882 175.352 318.647 175.352C315.411 175.352 312.788 177.975 312.788 181.21C312.788 184.445 315.411 187.068 318.647 187.068ZM440.505 198.783C440.505 202.018 437.882 204.641 434.647 204.641C431.411 204.641 428.788 202.018 428.788 198.783C428.788 195.548 431.411 192.925 434.647 192.925C437.882 192.925 440.505 195.548 440.505 198.783ZM292.283 218.7C297.136 218.7 301.071 214.766 301.071 209.913C301.071 205.06 297.136 201.126 292.283 201.126C287.43 201.126 283.495 205.06 283.495 209.913C283.495 214.766 287.43 218.7 292.283 218.7ZM458.081 220.457C458.081 225.957 453.622 230.415 448.121 230.415C442.621 230.415 438.162 225.957 438.162 220.457C438.162 214.957 442.621 210.499 448.121 210.499C453.622 210.499 458.081 214.957 458.081 220.457ZM337.394 255.018C365.694 251.748 369.419 248.023 371.374 221.043C374.644 249.338 378.37 253.064 405.354 255.018C377.054 258.288 373.328 262.013 371.374 288.993C368.104 260.698 364.378 256.972 337.394 255.018ZM228.424 318.282C261.603 314.449 265.971 310.081 268.263 278.449C272.097 311.623 276.465 315.991 308.101 318.282C274.922 322.115 270.554 326.483 268.263 358.115C264.429 324.941 260.061 320.573 228.424 318.282ZM393.636 328.826C391.682 355.806 387.956 359.532 359.657 362.801C386.641 364.756 390.366 368.481 393.636 396.776C395.591 369.796 399.317 366.071 427.616 362.801C400.632 360.847 396.907 357.121 393.636 328.826ZM212.606 407.32C218.107 407.32 222.566 402.862 222.566 397.362C222.566 391.862 218.107 387.404 212.606 387.404C207.106 387.404 202.647 391.862 202.647 397.362C202.647 402.862 207.106 407.32 212.606 407.32ZM356.142 343.47C356.142 348.97 351.682 353.429 346.182 353.429C340.681 353.429 336.222 348.97 336.222 343.47C336.222 337.971 340.681 333.512 346.182 333.512C351.682 333.512 356.142 337.971 356.142 343.47ZM338.566 288.407C338.566 293.26 334.631 297.194 329.778 297.194C324.924 297.194 320.99 293.26 320.99 288.407C320.99 283.555 324.924 279.621 329.778 279.621C334.631 279.621 338.566 283.555 338.566 288.407ZM173.939 297.194C178.793 297.194 182.727 293.26 182.727 288.407C182.727 283.555 178.793 279.621 173.939 279.621C169.086 279.621 165.152 283.555 165.152 288.407C165.152 293.26 169.086 297.194 173.939 297.194ZM168.667 341.127C168.667 345.98 164.732 349.914 159.879 349.914C155.025 349.914 151.091 345.98 151.091 341.127C151.091 336.275 155.025 332.341 159.879 332.341C164.732 332.341 168.667 336.275 168.667 341.127ZM329.778 400.291C334.631 400.291 338.566 396.357 338.566 391.504C338.566 386.652 334.631 382.718 329.778 382.718C324.924 382.718 320.99 386.652 320.99 391.504C320.99 396.357 324.924 400.291 329.778 400.291ZM295.212 409.078C295.212 413.93 291.278 417.864 286.424 417.864C281.571 417.864 277.636 413.93 277.636 409.078C277.636 404.225 281.571 400.291 286.424 400.291C291.278 400.291 295.212 404.225 295.212 409.078ZM498.505 247.989C503.359 247.989 507.293 244.055 507.293 239.202C507.293 234.349 503.359 230.415 498.505 230.415C493.652 230.415 489.717 234.349 489.717 239.202C489.717 244.055 493.652 247.989 498.505 247.989ZM483.859 274.349C483.859 278.554 480.449 281.964 476.243 281.964C472.036 281.964 468.626 278.554 468.626 274.349C468.626 270.143 472.036 266.734 476.243 266.734C480.449 266.734 483.859 270.143 483.859 274.349ZM502.02 293.679C506.227 293.679 509.637 290.27 509.637 286.064C509.637 281.858 506.227 278.449 502.02 278.449C497.814 278.449 494.404 281.858 494.404 286.064C494.404 290.27 497.814 293.679 502.02 293.679ZM504.95 372.759C504.95 376.965 501.54 380.375 497.333 380.375C493.127 380.375 489.717 376.965 489.717 372.759C489.717 368.554 493.127 365.144 497.333 365.144C501.54 365.144 504.95 368.554 504.95 372.759ZM370.788 445.982C374.994 445.982 378.404 442.572 378.404 438.367C378.404 434.161 374.994 430.751 370.788 430.751C366.582 430.751 363.172 434.161 363.172 438.367C363.172 442.572 366.582 445.982 370.788 445.982ZM406.525 309.495C406.525 313.701 403.116 317.11 398.909 317.11C394.703 317.11 391.293 313.701 391.293 309.495C391.293 305.29 394.703 301.88 398.909 301.88C403.116 301.88 406.525 305.29 406.525 309.495ZM374.303 324.14C377.862 324.14 380.748 321.255 380.748 317.696C380.748 314.138 377.862 311.253 374.303 311.253C370.744 311.253 367.859 314.138 367.859 317.696C367.859 321.255 370.744 324.14 374.303 324.14ZM399.495 269.662C399.495 273.221 396.61 276.106 393.051 276.106C389.491 276.106 386.606 273.221 386.606 269.662C386.606 266.104 389.491 263.219 393.051 263.219C396.61 263.219 399.495 266.104 399.495 269.662ZM442.263 351.086C445.822 351.086 448.707 348.201 448.707 344.642C448.707 341.083 445.822 338.198 442.263 338.198C438.704 338.198 435.818 341.083 435.818 344.642C435.818 348.201 438.704 351.086 442.263 351.086ZM357.313 405.563C357.313 409.122 354.428 412.007 350.869 412.007C347.31 412.007 344.424 409.122 344.424 405.563C344.424 402.004 347.31 399.119 350.869 399.119C354.428 399.119 357.313 402.004 357.313 405.563ZM311.616 381.546C314.852 381.546 317.475 378.923 317.475 375.688C317.475 372.453 314.852 369.831 311.616 369.831C308.381 369.831 305.758 372.453 305.758 375.688C305.758 378.923 308.381 381.546 311.616 381.546ZM364.344 492.844C364.344 496.079 361.721 498.702 358.485 498.702C355.249 498.702 352.626 496.079 352.626 492.844C352.626 489.609 355.249 486.986 358.485 486.986C361.721 486.986 364.344 489.609 364.344 492.844ZM467.455 428.408C470.69 428.408 473.313 425.786 473.313 422.551C473.313 419.315 470.69 416.693 467.455 416.693C464.219 416.693 461.596 419.315 461.596 422.551C461.596 425.786 464.219 428.408 467.455 428.408ZM360.828 371.002C360.828 373.59 358.73 375.688 356.142 375.688C353.553 375.688 351.455 373.59 351.455 371.002C351.455 368.414 353.553 366.316 356.142 366.316C358.73 366.316 360.828 368.414 360.828 371.002ZM330.364 358.115C332.952 358.115 335.051 356.017 335.051 353.429C335.051 350.841 332.952 348.742 330.364 348.742C327.775 348.742 325.677 350.841 325.677 353.429C325.677 356.017 327.775 358.115 330.364 358.115ZM377.232 346.399C377.232 348.988 375.134 351.086 372.546 351.086C369.957 351.086 367.859 348.988 367.859 346.399C367.859 343.811 369.957 341.713 372.546 341.713C375.134 341.713 377.232 343.811 377.232 346.399ZM362 311.253C364.589 311.253 366.687 309.155 366.687 306.566C366.687 303.978 364.589 301.88 362 301.88C359.412 301.88 357.313 303.978 357.313 306.566C357.313 309.155 359.412 311.253 362 311.253ZM337.394 329.998C337.394 332.586 335.296 334.684 332.707 334.684C330.119 334.684 328.02 332.586 328.02 329.998C328.02 327.409 330.119 325.311 332.707 325.311C335.296 325.311 337.394 327.409 337.394 329.998ZM303.414 338.198C306.003 338.198 308.101 336.1 308.101 333.512C308.101 330.924 306.003 328.826 303.414 328.826C300.826 328.826 298.727 330.924 298.727 333.512C298.727 336.1 300.826 338.198 303.414 338.198ZM317.475 349.328C317.475 352.24 315.114 354.6 312.202 354.6C309.29 354.6 306.929 352.24 306.929 349.328C306.929 346.417 309.29 344.056 312.202 344.056C315.114 344.056 317.475 346.417 317.475 349.328ZM281.737 361.63C284.65 361.63 287.01 359.269 287.01 356.358C287.01 353.446 284.65 351.086 281.737 351.086C278.825 351.086 276.465 353.446 276.465 356.358C276.465 359.269 278.825 361.63 281.737 361.63ZM265.919 370.416C265.919 373.328 263.559 375.688 260.647 375.688C257.735 375.688 255.374 373.328 255.374 370.416C255.374 367.505 257.735 365.144 260.647 365.144C263.559 365.144 265.919 367.505 265.919 370.416ZM243.071 375.688C245.983 375.688 248.344 373.328 248.344 370.416C248.344 367.505 245.983 365.144 243.071 365.144C240.159 365.144 237.798 367.505 237.798 370.416C237.798 373.328 240.159 375.688 243.071 375.688ZM282.323 392.676C282.323 395.588 279.963 397.948 277.051 397.948C274.139 397.948 271.778 395.588 271.778 392.676C271.778 389.764 274.139 387.404 277.051 387.404C279.963 387.404 282.323 389.764 282.323 392.676ZM254.788 404.977C257.7 404.977 260.061 402.617 260.061 399.705C260.061 396.794 257.7 394.433 254.788 394.433C251.876 394.433 249.515 396.794 249.515 399.705C249.515 402.617 251.876 404.977 254.788 404.977ZM344.424 441.881C344.424 444.793 342.064 447.153 339.152 447.153C336.24 447.153 333.879 444.793 333.879 441.881C333.879 438.97 336.24 436.609 339.152 436.609C342.064 436.609 344.424 438.97 344.424 441.881ZM350.869 456.526C353.781 456.526 356.142 454.165 356.142 451.254C356.142 448.342 353.781 445.982 350.869 445.982C347.957 445.982 345.596 448.342 345.596 451.254C345.596 454.165 347.957 456.526 350.869 456.526ZM362 419.036C362 421.624 359.902 423.722 357.313 423.722C354.725 423.722 352.626 421.624 352.626 419.036C352.626 416.448 354.725 414.35 357.313 414.35C359.902 414.35 362 416.448 362 419.036ZM369.03 415.521C371.619 415.521 373.717 413.423 373.717 410.835C373.717 408.247 371.619 406.149 369.03 406.149C366.442 406.149 364.344 408.247 364.344 410.835C364.344 413.423 366.442 415.521 369.03 415.521ZM288.182 291.922C288.182 294.834 285.821 297.194 282.909 297.194C279.997 297.194 277.636 294.834 277.636 291.922C277.636 289.01 279.997 286.65 282.909 286.65C285.821 286.65 288.182 289.01 288.182 291.922ZM233.697 333.512C236.609 333.512 238.97 331.152 238.97 328.24C238.97 325.329 236.609 322.968 233.697 322.968C230.785 322.968 228.424 325.329 228.424 328.24C228.424 331.152 230.785 333.512 233.697 333.512ZM265.919 210.499C265.919 213.734 263.296 216.357 260.061 216.357C256.825 216.357 254.202 213.734 254.202 210.499C254.202 207.264 256.825 204.641 260.061 204.641C263.296 204.641 265.919 207.264 265.919 210.499ZM158.121 263.219C161.357 263.219 163.98 260.596 163.98 257.361C163.98 254.126 161.357 251.503 158.121 251.503C154.886 251.503 152.263 254.126 152.263 257.361C152.263 260.596 154.886 263.219 158.121 263.219ZM222.566 352.843C222.566 355.755 220.205 358.115 217.293 358.115C214.381 358.115 212.02 355.755 212.02 352.843C212.02 349.931 214.381 347.571 217.293 347.571C220.205 347.571 222.566 349.931 222.566 352.843ZM170.424 408.492C173.336 408.492 175.697 406.132 175.697 403.22C175.697 400.308 173.336 397.948 170.424 397.948C167.512 397.948 165.152 400.308 165.152 403.22C165.152 406.132 167.512 408.492 170.424 408.492ZM337.394 265.562C337.394 268.797 334.771 271.42 331.535 271.42C328.3 271.42 325.677 268.797 325.677 265.562C325.677 262.327 328.3 259.704 331.535 259.704C334.771 259.704 337.394 262.327 337.394 265.562ZM232.525 414.35C235.437 414.35 237.798 411.989 237.798 409.078C237.798 406.166 235.437 403.806 232.525 403.806C229.613 403.806 227.253 406.166 227.253 409.078C227.253 411.989 229.613 414.35 232.525 414.35ZM208.505 432.509C208.505 435.42 206.144 437.781 203.232 437.781C200.32 437.781 197.96 435.42 197.96 432.509C197.96 429.597 200.32 427.237 203.232 427.237C206.144 427.237 208.505 429.597 208.505 432.509ZM224.323 467.07C227.235 467.07 229.596 464.709 229.596 461.798C229.596 458.886 227.235 456.526 224.323 456.526C221.411 456.526 219.051 458.886 219.051 461.798C219.051 464.709 221.411 467.07 224.323 467.07ZM255.374 440.71C255.374 442.974 253.538 444.81 251.273 444.81C249.008 444.81 247.172 442.974 247.172 440.71C247.172 438.445 249.008 436.609 251.273 436.609C253.538 436.609 255.374 438.445 255.374 440.71ZM405.354 339.37C407.942 339.37 410.041 337.272 410.041 334.684C410.041 332.096 407.942 329.998 405.354 329.998C402.765 329.998 400.667 332.096 400.667 334.684C400.667 337.272 402.765 339.37 405.354 339.37ZM427.616 319.454C427.616 322.042 425.518 324.14 422.929 324.14C420.341 324.14 418.243 322.042 418.243 319.454C418.243 316.865 420.341 314.767 422.929 314.767C425.518 314.767 427.616 316.865 427.616 319.454ZM414.727 305.395C417.316 305.395 419.414 303.297 419.414 300.709C419.414 298.121 417.316 296.022 414.727 296.022C412.139 296.022 410.041 298.121 410.041 300.709C410.041 303.297 412.139 305.395 414.727 305.395ZM439.333 281.964C439.333 284.552 437.235 286.65 434.647 286.65C432.058 286.65 429.96 284.552 429.96 281.964C429.96 279.376 432.058 277.278 434.647 277.278C437.235 277.278 439.333 279.376 439.333 281.964ZM447.535 290.165C450.124 290.165 452.222 288.067 452.222 285.478C452.222 282.89 450.124 280.792 447.535 280.792C444.947 280.792 442.849 282.89 442.849 285.478C442.849 288.067 444.947 290.165 447.535 290.165ZM415.899 264.39C415.899 266.979 413.801 269.077 411.212 269.077C408.624 269.077 406.525 266.979 406.525 264.39C406.525 261.802 408.624 259.704 411.212 259.704C413.801 259.704 415.899 261.802 415.899 264.39ZM446.364 259.704C448.952 259.704 451.051 257.606 451.051 255.018C451.051 252.43 448.952 250.332 446.364 250.332C443.775 250.332 441.677 252.43 441.677 255.018C441.677 257.606 443.775 259.704 446.364 259.704ZM465.111 235.101C465.111 237.69 463.013 239.788 460.424 239.788C457.836 239.788 455.737 237.69 455.737 235.101C455.737 232.513 457.836 230.415 460.424 230.415C463.013 230.415 465.111 232.513 465.111 235.101ZM486.202 263.219C488.791 263.219 490.889 261.121 490.889 258.533C490.889 255.944 488.791 253.846 486.202 253.846C483.614 253.846 481.515 255.944 481.515 258.533C481.515 261.121 483.614 263.219 486.202 263.219ZM467.455 249.16C467.455 252.395 464.832 255.018 461.596 255.018C458.36 255.018 455.737 252.395 455.737 249.16C455.737 245.925 458.36 243.302 461.596 243.302C464.832 243.302 467.455 245.925 467.455 249.16ZM426.445 249.16C429.68 249.16 432.303 246.538 432.303 243.302C432.303 240.067 429.68 237.445 426.445 237.445C423.209 237.445 420.586 240.067 420.586 243.302C420.586 246.538 423.209 249.16 426.445 249.16ZM468.626 215.185C471.862 215.185 474.485 212.562 474.485 209.327C474.485 206.092 471.862 203.469 468.626 203.469C465.391 203.469 462.768 206.092 462.768 209.327C462.768 212.562 465.391 215.185 468.626 215.185ZM234.283 205.227C234.283 209.432 230.873 212.842 226.667 212.842C222.46 212.842 219.051 209.432 219.051 205.227C219.051 201.021 222.46 197.612 226.667 197.612C230.873 197.612 234.283 201.021 234.283 205.227ZM265.333 453.011C268.893 453.011 271.778 450.126 271.778 446.567C271.778 443.009 268.893 440.124 265.333 440.124C261.774 440.124 258.889 443.009 258.889 446.567C258.889 450.126 261.774 453.011 265.333 453.011ZM267.091 426.651C267.091 430.21 264.206 433.095 260.647 433.095C257.087 433.095 254.202 430.21 254.202 426.651C254.202 423.092 257.087 420.207 260.647 420.207C264.206 420.207 267.091 423.092 267.091 426.651ZM238.384 400.291C241.943 400.291 244.828 397.406 244.828 393.847C244.828 390.289 241.943 387.404 238.384 387.404C234.825 387.404 231.939 390.289 231.939 393.847C231.939 397.406 234.825 400.291 238.384 400.291ZM226.081 434.852C226.081 438.411 223.196 441.295 219.636 441.295C216.077 441.295 213.192 438.411 213.192 434.852C213.192 431.293 216.077 428.408 219.636 428.408C223.196 428.408 226.081 431.293 226.081 434.852ZM202.061 315.939C205.62 315.939 208.505 313.054 208.505 309.495C208.505 305.937 205.62 303.052 202.061 303.052C198.502 303.052 195.616 305.937 195.616 309.495C195.616 313.054 198.502 315.939 202.061 315.939ZM336.222 313.01C336.222 316.569 333.337 319.454 329.778 319.454C326.219 319.454 323.333 316.569 323.333 313.01C323.333 309.451 326.219 306.566 329.778 306.566C333.337 306.566 336.222 309.451 336.222 313.01ZM404.768 247.989C408.327 247.989 411.212 245.104 411.212 241.545C411.212 237.986 408.327 235.101 404.768 235.101C401.209 235.101 398.323 237.986 398.323 241.545C398.323 245.104 401.209 247.989 404.768 247.989ZM486.788 332.341C490.347 332.341 493.232 329.456 493.232 325.897C493.232 322.338 490.347 319.454 486.788 319.454C483.229 319.454 480.344 322.338 480.344 325.897C480.344 329.456 483.229 332.341 486.788 332.341ZM424.101 279.035C424.101 282.594 421.216 285.478 417.657 285.478C414.098 285.478 411.212 282.594 411.212 279.035C411.212 275.476 414.098 272.591 417.657 272.591C421.216 272.591 424.101 275.476 424.101 279.035ZM162.808 368.659C166.691 368.659 169.838 365.512 169.838 361.63C169.838 357.747 166.691 354.6 162.808 354.6C158.925 354.6 155.778 357.747 155.778 361.63C155.778 365.512 158.925 368.659 162.808 368.659Z" fill="white"/>
<defs>
<linearGradient id="paint0_linear_204_58" x1="333" y1="91" x2="327.5" y2="633.5" gradientUnits="userSpaceOnUse">
<stop stop-color="#FFDC73"/>
<stop offset="0.245" stop-color="#FFCF40"/>
<stop offset="0.495" stop-color="#FFBF00"/>
<stop offset="0.74" stop-color="#A67C00"/>
<stop offset="1" stop-color="#A67C00"/>
</linearGradient>
</defs>
</svg>
